<svg width="14" height="15" viewBox="0 0 14 15" fill="none" xmlns="http://www.w3.org/2000/svg">
<path d="M1.57908 14.002H6.71475C6.95625 14.002 7.15225 13.806 7.15225 13.5645C7.15225 13.4711 7.14642 9.57445 7.14583 9.48112C7.14583 9.23962 6.94983 9.04362 6.70833 9.04362H5.39583V7.58529H6.70833C6.94983 7.58529 7.14583 7.38929 7.14583 7.14779V5.50454C7.14583 4.07887 8.30608 2.91862 9.73175 2.91862H10.9375V4.37695H10.2083C9.64542 4.37695 9.1875 4.83487 9.1875 5.39779V7.14779C9.1875 7.38929 9.3835 7.58529 9.625 7.58529H11.3983L11.0338 9.04362H9.625C9.3835 9.04362 9.1875 9.23962 9.1875 9.48112V13.5645C9.1875 13.806 9.3835 14.002 9.625 14.002H12.4209C13.2918 14.002 14 13.2938 14 12.4229V1.58104C14 0.71012 13.2918 0.00195312 12.4209 0.00195312H1.57908C0.708167 0.00195312 0 0.71012 0 1.58104V12.4235C0 13.2938 0.708167 14.002 1.57908 14.002V14.002ZM0.875 1.58104C0.875 1.19254 1.19058 0.876953 1.57908 0.876953H12.4215C12.81 0.876953 13.1256 1.19254 13.1256 1.58104V12.4235C13.1256 12.812 12.81 13.1275 12.4215 13.1275H10.0625V9.91862H11.375C11.5757 9.91862 11.7507 9.78212 11.7997 9.58729L12.383 7.25395C12.4518 6.97804 12.2436 6.71029 11.9583 6.71029H10.0625V5.39779C10.0625 5.31845 10.129 5.25195 10.2083 5.25195H11.375C11.6165 5.25195 11.8125 5.05595 11.8125 4.81445V2.48112C11.8125 2.23962 11.6165 2.04362 11.375 2.04362H9.73175C7.82367 2.04362 6.27083 3.59645 6.27083 5.50454V6.71029H4.95833C4.71683 6.71029 4.52083 6.90629 4.52083 7.14779V9.48112C4.52083 9.72262 4.71683 9.91862 4.95833 9.91862H6.27083V13.127H1.57908C1.19058 13.127 0.875 12.8114 0.875 12.4229V1.58104Z" fill="#F2F2F2"/>
</svg>
