<svg width="14" height="15" viewBox="0 0 14 15" fill="none" xmlns="http://www.w3.org/2000/svg">
<path d="M2.77083 14.002H11.2292C12.7569 14.002 14 12.7589 14 11.2311V2.77279C14 1.24504 12.7569 0.00195312 11.2292 0.00195312H2.77083C1.24308 0.00195312 0 1.24504 0 2.77279V11.2311C0 12.7589 1.24308 14.002 2.77083 14.002ZM0.875 2.77279C0.875 1.72745 1.7255 0.876953 2.77083 0.876953H11.2292C12.2745 0.876953 13.125 1.72745 13.125 2.77279V11.2311C13.125 12.2765 12.2745 13.127 11.2292 13.127H2.77083C1.7255 13.127 0.875 12.2765 0.875 11.2311V2.77279Z" fill="#F2F2F2"/>
<path d="M7.00015 10.5779C8.97181 10.5779 10.576 8.97377 10.576 7.0021C10.576 5.03044 8.97181 3.42627 7.00015 3.42627C5.02848 3.42627 3.42432 5.03044 3.42432 7.0021C3.42432 8.97377 5.02848 10.5779 7.00015 10.5779ZM7.00015 4.30127C8.4894 4.30127 9.70098 5.51285 9.70098 7.0021C9.70098 8.49135 8.4894 9.70293 7.00015 9.70293C5.5109 9.70293 4.29932 8.49135 4.29932 7.0021C4.29932 5.51285 5.5109 4.30127 7.00015 4.30127V4.30127Z" fill="#F2F2F2"/>
<path d="M10.7087 4.29641C11.2839 4.29641 11.7173 3.86474 11.7173 3.29249C11.7173 2.69574 11.2611 2.28857 10.7093 2.28857C10.1341 2.28857 9.70068 2.72024 9.70068 3.29249C9.70068 3.88807 10.1545 4.29641 10.7087 4.29641ZM10.8119 3.19624C10.9963 3.35899 10.5757 3.55674 10.5757 3.29307C10.5757 3.13557 10.7898 3.17641 10.8119 3.19624Z" fill="#F2F2F2"/>
</svg>
