<svg width="16" height="11" viewBox="0 0 16 11" fill="none" xmlns="http://www.w3.org/2000/svg">
<path d="M8.09658 10.002C10.4112 10.002 9.5859 8.53662 9.76456 8.11529C9.76189 7.80062 9.75923 7.49795 9.76989 7.31395C9.91656 7.35529 10.2626 7.53062 10.9772 8.22529C12.0805 9.33862 12.3625 10.002 13.2539 10.002H14.8945C15.4145 10.002 15.6852 9.78662 15.8205 9.60595C15.9512 9.43129 16.0792 9.12462 15.9392 8.64729C15.5732 7.49795 13.4385 5.51329 13.3059 5.30395C13.3259 5.26529 13.3579 5.21395 13.3745 5.18729H13.3732C13.7945 4.63062 15.4025 2.22129 15.6392 1.25729C15.6398 1.25595 15.6405 1.25395 15.6405 1.25195C15.7685 0.811953 15.6512 0.52662 15.5298 0.365287C15.3472 0.123953 15.0565 0.00195312 14.6638 0.00195312H13.0232C12.4739 0.00195312 12.0572 0.27862 11.8465 0.783286C11.4939 1.67995 10.5032 3.52395 9.76056 4.17662C9.73789 3.25195 9.75323 2.54595 9.76523 2.02129C9.78923 0.997953 9.86656 0.00195312 8.80457 0.00195312H6.22593C5.56061 0.00195312 4.92395 0.72862 5.61327 1.59129C6.21593 2.34729 5.82994 2.76862 5.95993 4.86595C5.45327 4.32262 4.55195 2.85529 3.91462 0.979953C3.73596 0.47262 3.4653 0.00261974 2.7033 0.00261974H1.06266C0.397329 0.00261974 0 0.365286 0 0.97262C0 2.33662 3.0193 10.002 8.09658 10.002V10.002ZM2.7033 1.00262C2.84797 1.00262 2.86264 1.00262 2.96997 1.30729C3.62263 3.22929 5.08661 6.07329 6.15593 6.07329C6.95926 6.07329 6.95926 5.24995 6.95926 4.93995L6.95859 2.47195C6.91459 1.65529 6.61726 1.24862 6.42193 1.00195L8.76057 1.00462C8.7619 1.01595 8.74724 3.73462 8.76724 4.39329C8.76724 5.32862 9.5099 5.86462 10.6692 4.69129C11.8925 3.31062 12.7385 1.24662 12.7725 1.16262C12.8225 1.04262 12.8659 1.00195 13.0232 1.00195H14.6638H14.6705C14.6698 1.00395 14.6698 1.00595 14.6692 1.00795C14.5192 1.70795 13.0385 3.93862 12.5432 4.63129C12.5352 4.64195 12.5279 4.65329 12.5205 4.66462C12.3025 5.02062 12.1252 5.41395 12.5505 5.96729H12.5512C12.5899 6.01395 12.6905 6.12329 12.8372 6.27529C13.2932 6.74595 14.8572 8.35529 14.9958 8.99529C14.9038 9.00995 14.8038 8.99929 13.2539 9.00262C12.9239 9.00262 12.6659 8.50929 11.6812 7.51595C10.7959 6.65462 10.2212 6.30262 9.69789 6.30262C8.6819 6.30262 8.7559 7.12729 8.76524 8.12462C8.76857 9.20595 8.7619 8.86395 8.76924 8.93195C8.7099 8.95529 8.53991 9.00195 8.09658 9.00195C3.86662 9.00195 1.11199 2.28795 1.00599 1.00462C1.04266 1.00129 1.54732 1.00329 2.7033 1.00262V1.00262Z" fill="#F2F2F2"/>
</svg>
