<svg width="14" height="11" viewBox="0 0 14 11" fill="none" xmlns="http://www.w3.org/2000/svg">
<path d="M11.6107 0.28216C8.89642 -0.0914492 5.10475 -0.0914492 2.38933 0.28216C1.30317 0.431388 0.447417 1.22186 0.26075 2.24807C-0.0869167 4.15288 -0.0869167 5.85116 0.26075 7.75543C0.447417 8.78218 1.30317 9.57211 2.38933 9.72134C3.74967 9.90842 5.37833 10.002 7.00642 10.002C8.63158 10.002 10.2562 9.90896 11.6113 9.72188C12.6962 9.57265 13.5514 8.78272 13.7392 7.75597C14.0869 5.85116 14.0869 4.15234 13.7392 2.24753C13.5526 1.22186 12.6968 0.431388 11.6107 0.28216V0.28216ZM12.8765 7.6208C12.7522 8.29989 12.1922 8.82219 11.4823 8.91951C8.84683 9.28231 5.16017 9.28231 2.51767 8.91897C1.80717 8.82111 1.24658 8.29935 1.12292 7.62026C0.788083 5.7852 0.788083 4.21885 1.12292 2.3827C1.24717 1.70361 1.80717 1.18239 2.51825 1.08399C3.83775 0.90286 5.41917 0.812026 6.99942 0.812026C8.58083 0.812026 10.1622 0.90286 11.4817 1.08399C12.1922 1.18185 12.7528 1.70361 12.8765 2.3827C13.2113 4.21885 13.2113 5.78519 12.8765 7.6208Z" fill="#F2F2F2"/>
</svg>
