<svg width="56" height="40" viewBox="0 0 56 40" fill="none" xmlns="http://www.w3.org/2000/svg">
<g opacity="0.4">
<path d="M56 0V11.1057C54.5146 11.1057 53.2272 11.2039 52.1379 11.4005C51.0156 11.5971 50.1409 11.9247 49.5137 12.3833C48.8205 12.9075 48.2759 13.4152 47.8798 13.9066C47.4836 14.5618 47.1866 15.3317 46.9885 16.2162C46.7905 17.2645 46.6914 18.1327 46.6914 18.8206C46.6584 19.0827 46.6419 19.4922 46.6419 20.0491C46.6089 20.5733 46.5924 21.2449 46.5924 22.0639H55.901V40H30.649C29.8898 34.5618 29.5102 30.0246 29.5102 26.3882C29.5102 17.2809 31.6393 10.6143 35.8974 6.38821C40.2216 2.1294 46.9225 0 56 0Z" fill="#7983D6"/>
<path d="M26.4898 0V11.1057C25.0044 11.1057 23.7171 11.2039 22.6278 11.4005C21.5055 11.5971 20.6307 11.9247 20.0035 12.3833C19.3103 12.9075 18.7657 13.4152 18.3696 13.9066C17.9735 14.5618 17.6764 15.3317 17.4783 16.2162C17.2803 17.2645 17.1813 18.1327 17.1813 18.8206C17.1482 19.0827 17.1317 19.4922 17.1317 20.0491C17.0987 20.5733 17.0822 21.2449 17.0822 22.0639H26.3908V40H1.13882C0.379604 34.5618 0 30.0246 0 26.3882C0 17.2809 2.12909 10.6143 6.38727 6.38821C10.7115 2.1294 17.4123 0 26.4898 0Z" fill="#7983D6"/>
</g>
</svg>
