<svg width="16" height="17" viewBox="0 0 16 17" fill="none" xmlns="http://www.w3.org/2000/svg">
<path d="M7.99456 9.00849V9.0166M4.88587 9.00849V9.0166M11.1032 9.00849V9.0166M1 15.5L2.01033 12.3354C1.13713 10.987 0.821245 9.39026 1.12141 7.84196C1.42157 6.29366 2.31736 4.8992 3.64221 3.91785C4.96706 2.93651 6.63082 2.43506 8.32415 2.50675C10.0175 2.57843 11.6251 3.21837 12.8482 4.30757C14.0713 5.39678 14.8266 6.86113 14.9736 8.42837C15.1207 9.9956 14.6495 11.5591 13.6476 12.8281C12.6458 14.0971 11.1815 14.9852 9.52698 15.3275C7.87249 15.6697 6.14038 15.4426 4.65271 14.6886L1 15.5Z" stroke="#6D86E9" stroke-width="1.5" stroke-linecap="round" stroke-linejoin="round"/>
</svg>
