<svg width="18" height="18" viewBox="0 0 18 18" fill="none" xmlns="http://www.w3.org/2000/svg">
<path d="M9.00033 2.25014C9.09933 2.25014 9.19758 2.25014 9.29508 2.25014C8.33158 3.14542 7.71227 4.35002 7.54479 5.65456C7.37732 6.95909 7.67227 8.28106 8.37838 9.39069C9.08449 10.5003 10.1571 11.3274 11.4098 11.7282C12.6625 12.1291 14.016 12.0783 15.2351 11.5846C14.7661 12.713 13.9997 13.6929 13.0175 14.4198C12.0353 15.1468 10.8742 15.5934 9.65801 15.7122C8.44185 15.8309 7.21627 15.6174 6.11199 15.0942C5.00771 14.571 4.06616 13.7579 3.38777 12.7416C2.70937 11.7253 2.31959 10.5439 2.25999 9.32337C2.20039 8.10288 2.47321 6.88911 3.04935 5.81153C3.62549 4.73394 4.48335 3.83296 5.5314 3.20469C6.57945 2.57642 7.77839 2.24444 9.00033 2.24414V2.25014Z" stroke="white" stroke-width="2" stroke-linecap="round" stroke-linejoin="round"/>
<path d="M12.7503 3C12.7503 3.39782 12.9083 3.77936 13.1896 4.06066C13.471 4.34196 13.8525 4.5 14.2503 4.5C13.8525 4.5 13.471 4.65804 13.1896 4.93934C12.9083 5.22064 12.7503 5.60218 12.7503 6C12.7503 5.60218 12.5923 5.22064 12.311 4.93934C12.0297 4.65804 11.6481 4.5 11.2503 4.5C11.6481 4.5 12.0297 4.34196 12.311 4.06066C12.5923 3.77936 12.7503 3.39782 12.7503 3Z" stroke="white" stroke-width="2" stroke-linecap="round" stroke-linejoin="round"/>
</svg>
