<svg width="18" height="12" viewBox="0 0 18 12" fill="none" xmlns="http://www.w3.org/2000/svg">
<path d="M10.6787 6.83937L11.5181 5.16065M5.64259 11.0362V10.1968C5.64259 9.30635 5.28886 8.45238 4.65922 7.82274C4.02958 7.1931 3.1756 6.83937 2.28516 6.83937H1.4458M7.3213 6.00001L8.58034 3.48194M2.28516 0.963867H6.83951C6.98609 0.96397 7.13009 1.00246 7.25717 1.0755C7.38426 1.14854 7.49 1.25359 7.56388 1.38019L8.45695 2.91034C8.62855 3.20459 8.85806 3.46097 9.1316 3.66396C9.40514 3.86696 9.71702 4.01234 10.0484 4.09131L13.9741 5.02636C14.7086 5.20116 15.3629 5.61849 15.831 6.21094C16.2992 6.80339 16.554 7.53636 16.5542 8.29146V10.1968C16.5542 10.4194 16.4658 10.6329 16.3084 10.7903C16.151 10.9477 15.9375 11.0362 15.7149 11.0362H2.28516C2.06255 11.0362 1.84905 10.9477 1.69164 10.7903C1.53423 10.6329 1.4458 10.4194 1.4458 10.1968V1.80322C1.4458 1.58061 1.53423 1.36712 1.69164 1.20971C1.84905 1.0523 2.06255 0.963867 2.28516 0.963867Z" stroke="#737CD2" stroke-width="1.67871" stroke-linecap="round" stroke-linejoin="round"/>
</svg>
