<svg width="20" height="20" viewBox="0 0 20 20" fill="none" xmlns="http://www.w3.org/2000/svg">
<path d="M14.8332 16.5142L13.0232 17.4625C12.9695 17.4905 12.9091 17.503 12.8487 17.4986C12.7883 17.4942 12.7303 17.4731 12.6812 17.4376C12.6321 17.4022 12.5938 17.3538 12.5706 17.2979C12.5474 17.2419 12.5403 17.1806 12.5499 17.1209L12.8957 15.1117L11.4315 13.6892C11.3878 13.6469 11.3569 13.5933 11.3422 13.5343C11.3276 13.4753 11.3298 13.4133 11.3487 13.3556C11.3675 13.2978 11.4023 13.2465 11.4489 13.2075C11.4955 13.1685 11.5522 13.1434 11.6124 13.135L13.6357 12.8417L14.5407 11.0142C14.5678 10.9598 14.6095 10.914 14.6612 10.8819C14.7128 10.8499 14.7724 10.833 14.8332 10.833C14.894 10.833 14.9536 10.8499 15.0053 10.8819C15.0569 10.914 15.0986 10.9598 15.1257 11.0142L16.0307 12.8417L18.054 13.135C18.1141 13.1437 18.1705 13.1689 18.2169 13.208C18.2633 13.247 18.2979 13.2982 18.3167 13.3559C18.3356 13.4135 18.3379 13.4753 18.3234 13.5342C18.3089 13.5931 18.2783 13.6468 18.2349 13.6892L16.7707 15.1117L17.1157 17.12C17.1261 17.1799 17.1194 17.2415 17.0965 17.2978C17.0736 17.3541 17.0354 17.4029 16.9862 17.4385C16.937 17.4742 16.8788 17.4954 16.8181 17.4996C16.7575 17.5038 16.6969 17.491 16.6432 17.4625L14.8332 16.5142Z" stroke="#737CD2" stroke-width="1.67871" stroke-linecap="round" stroke-linejoin="round"/>
<path d="M5.16654 16.5142L3.35654 17.4625C3.30283 17.4905 3.2424 17.503 3.18201 17.4986C3.12161 17.4942 3.06363 17.4731 3.01453 17.4376C2.96543 17.4022 2.92715 17.3538 2.90396 17.2979C2.88077 17.2419 2.87359 17.1806 2.88321 17.1209L3.22904 15.1117L1.76487 13.6892C1.72117 13.6469 1.69023 13.5933 1.67557 13.5343C1.66092 13.4753 1.66315 13.4133 1.68201 13.3556C1.70086 13.2978 1.73559 13.2465 1.78222 13.2075C1.82884 13.1685 1.8855 13.1434 1.94571 13.135L3.96904 12.8417L4.87404 11.0142C4.9011 10.9598 4.94282 10.914 4.9945 10.8819C5.04617 10.8499 5.10575 10.833 5.16654 10.833C5.22733 10.833 5.28691 10.8499 5.33858 10.8819C5.39026 10.914 5.43197 10.9598 5.45904 11.0142L6.36404 12.8417L8.38737 13.135C8.44741 13.1437 8.50383 13.1689 8.55025 13.208C8.59667 13.247 8.63125 13.2982 8.65006 13.3559C8.66888 13.4135 8.67118 13.4753 8.65672 13.5342C8.64225 13.5931 8.61159 13.6468 8.56821 13.6892L7.10404 15.1117L7.44904 17.12C7.45939 17.1799 7.45275 17.2415 7.42985 17.2978C7.40696 17.3541 7.36874 17.4029 7.31953 17.4385C7.27032 17.4742 7.2121 17.4954 7.15147 17.4996C7.09084 17.5038 7.03023 17.491 6.97654 17.4625L5.16654 16.5142Z" stroke="#737CD2" stroke-width="1.67871" stroke-linecap="round" stroke-linejoin="round"/>
<path d="M9.99989 8.18085L8.18989 9.12919C8.13617 9.15714 8.07575 9.16962 8.01535 9.16522C7.95496 9.16083 7.89698 9.13973 7.84788 9.10429C7.79878 9.06885 7.7605 9.02046 7.73731 8.96452C7.71412 8.90859 7.70693 8.8473 7.71655 8.78752L8.06239 6.77835L6.59822 5.35585C6.55452 5.31361 6.52358 5.25992 6.50892 5.20093C6.49427 5.14194 6.4965 5.08001 6.51536 5.02223C6.53421 4.96444 6.56894 4.91312 6.61556 4.87412C6.66219 4.83513 6.71884 4.81003 6.77905 4.80169L8.80239 4.50835L9.70739 2.68085C9.73445 2.62642 9.77617 2.58063 9.82784 2.54861C9.87952 2.5166 9.9391 2.49963 9.99989 2.49963C10.0607 2.49963 10.1203 2.5166 10.1719 2.54861C10.2236 2.58063 10.2653 2.62642 10.2924 2.68085L11.1974 4.50835L13.2207 4.80169C13.2808 4.81032 13.3372 4.83559 13.3836 4.87462C13.43 4.91365 13.4646 4.96489 13.4834 5.02255C13.5022 5.08021 13.5045 5.14199 13.4901 5.20089C13.4756 5.25979 13.4449 5.31347 13.4016 5.35585L11.9374 6.77835L12.2824 8.78669C12.2927 8.84658 12.2861 8.90817 12.2632 8.96447C12.2403 9.02077 12.2021 9.06952 12.1529 9.10519C12.1037 9.14086 12.0454 9.16202 11.9848 9.16626C11.9242 9.1705 11.8636 9.15766 11.8099 9.12919L9.99989 8.18085Z" stroke="#737CD2" stroke-width="1.67871" stroke-linecap="round" stroke-linejoin="round"/>
</svg>
