<svg width="33" height="47" viewBox="0 0 33 47" fill="none" xmlns="http://www.w3.org/2000/svg">
<path d="M5.17822 13.6445C5.18011 15.8807 6.0667 18.0248 7.64344 19.606C9.22019 21.1872 11.3582 22.0764 13.588 22.0783V19.7505C11.9769 19.7486 10.432 19.1071 9.29105 17.9663C8.15012 16.8255 7.50602 15.2781 7.49942 13.6624C7.50036 12.043 8.14201 10.49 9.28355 9.34458C10.4251 8.19912 11.9732 7.55473 13.588 7.55283H16.4021V5.22504H13.588C11.3609 5.22787 9.22568 6.11536 7.64955 7.69329C6.07341 9.27122 5.18483 11.4111 5.17822 13.6445V13.6445Z" fill="white"/>
<path d="M18.6409 19.7397H16.4019V22.064H18.6409V19.7397Z" fill="white"/>
<path d="M15.7518 39.483H13.5127V41.8072H15.7518V39.483Z" fill="white"/>
<path d="M18.5624 41.8072C22.1659 41.8034 25.6208 40.3662 28.1689 37.8109C30.717 35.2556 32.1501 31.7909 32.1539 28.1771C32.1445 24.567 30.7089 21.1079 28.1614 18.5572C25.6139 16.0065 22.1622 14.5722 18.5624 14.5684V16.8962C21.55 16.8991 24.4145 18.0903 26.5274 20.2085C28.6403 22.3267 29.8289 25.1989 29.8327 28.195C29.829 31.1914 28.6403 34.064 26.5276 36.1828C24.4148 38.3015 21.5503 39.4935 18.5624 39.4973H15.752V41.8251L18.5624 41.8072Z" fill="white"/>
<path d="M26.9759 28.177C26.973 25.9405 26.0855 23.7965 24.5082 22.2153C22.9309 20.6342 20.7926 19.7452 18.5624 19.7433V22.0711C20.1742 22.072 21.72 22.713 22.8617 23.854C24.0034 24.9949 24.6481 26.5428 24.6547 28.1592C24.6528 29.7789 24.0104 31.3318 22.8683 32.4772C21.7262 33.6225 20.1776 34.2668 18.5624 34.2687H15.752V36.5965H18.5624C20.7898 36.5937 22.9256 35.7063 24.5023 34.1285C26.079 32.5506 26.9683 30.4108 26.9759 28.177V28.177Z" fill="white"/>
<path d="M25.3048 11.3059C25.3044 12.1986 25.1088 13.0804 24.7318 13.8891C24.3548 14.6978 23.8057 15.4138 23.1229 15.9866C23.7481 16.337 24.3451 16.7357 24.9084 17.1792C24.971 17.2307 25.0296 17.2869 25.0835 17.3475C25.8907 16.5633 26.5323 15.6244 26.9703 14.5865C27.4084 13.5486 27.6337 12.433 27.6331 11.3059C27.6331 6.65035 23.8585 2.711 19.2197 2.711H16.4629V5.18205H19.2197C20.0202 5.18346 20.8126 5.343 21.5517 5.65152C22.2907 5.96004 22.9619 6.41148 23.5269 6.98014C24.092 7.5488 24.5399 8.2235 24.845 8.96573C25.15 9.70795 25.3062 10.5031 25.3048 11.3059V11.3059Z" fill="white"/>
<path d="M8.8386 26.4044C8.71004 26.4903 8.58504 26.5834 8.46005 26.6801L8.38873 26.7374C8.28398 26.8162 8.18387 26.8986 8.08864 26.9845L8.01367 27.049C7.90653 27.1421 7.80301 27.2388 7.69945 27.3391L7.67086 27.3713C7.44173 27.5962 7.2271 27.8354 7.02814 28.0875L6.96379 28.1663C6.8888 28.263 6.81377 28.3633 6.74235 28.4636L6.67103 28.5603L6.45673 28.8862L6.41035 28.9578C6.32821 29.0939 6.24593 29.2335 6.17094 29.3768C6.09952 29.5081 6.03173 29.6442 5.96745 29.785L5.91392 29.9032C5.8675 30.0071 5.82111 30.1145 5.77826 30.222L5.72456 30.358C5.6817 30.4691 5.64257 30.5765 5.60686 30.6875C5.60686 30.7305 5.57816 30.7699 5.56745 30.8093C5.51746 30.9597 5.47107 31.1137 5.43179 31.2676C5.43179 31.2676 5.43179 31.2892 5.43179 31.2963C5.39251 31.4396 5.36045 31.5864 5.33188 31.7332C5.33188 31.7834 5.33177 31.8335 5.30677 31.8837C5.28534 31.9947 5.26752 32.1021 5.25324 32.2131L5.23179 32.3814C5.23179 32.496 5.21042 32.607 5.19971 32.7395V32.8935C5.19971 33.0547 5.19971 33.2158 5.19971 33.3806C5.2016 35.6171 6.08811 37.7615 7.66475 39.3433C9.2414 40.9251 11.3793 41.8151 13.6095 41.818V39.4902C11.9946 39.4883 10.4466 38.8438 9.30504 37.6984C8.1635 36.5529 7.52185 35 7.5209 33.3806C7.52751 31.7649 8.17161 30.2175 9.31254 29.0766C10.4535 27.9358 11.9983 27.2944 13.6095 27.2925H16.4236V24.9647H13.6095C11.9102 24.9467 10.2459 25.4489 8.8386 26.4044V26.4044Z" fill="white"/>
<path d="M13.5878 2.0553e-05C9.98493 0.00476024 6.5311 1.44242 3.9838 3.99764C1.43649 6.55287 0.00377948 10.017 0 13.6301C0.000548573 15.4772 0.376062 17.3048 1.10358 19.0016C1.83109 20.6984 2.89542 22.229 4.23175 23.5C2.89542 24.7711 1.83109 26.3016 1.10358 27.9985C0.376062 29.6953 0.000548573 31.5228 0 33.3699C0.00377948 36.983 1.43649 40.4472 3.9838 43.0024C6.5311 45.5576 9.98493 46.9953 13.5878 47V44.6722C10.6003 44.6684 7.73628 43.4763 5.62408 41.3574C3.51188 39.2386 2.32403 36.3659 2.32119 33.3699V33.3699C2.32119 33.1729 2.32119 32.976 2.32119 32.779C2.32119 32.7145 2.32119 32.65 2.32119 32.582C2.32119 32.4495 2.33899 32.317 2.35328 32.1881C2.36756 32.0591 2.37473 32.0341 2.38187 31.9589C2.38902 31.8837 2.41406 31.7189 2.43192 31.6007L2.47481 31.3644C2.49624 31.2498 2.51398 31.1388 2.53898 31.0063L2.59251 30.7735C2.62108 30.6589 2.64624 30.5479 2.67481 30.4368L2.73898 30.2112C2.77112 30.1002 2.80684 29.9892 2.84256 29.8817C2.87827 29.7743 2.88905 29.7349 2.91405 29.6633C2.93904 29.5917 2.99255 29.4413 3.03541 29.3338C3.07826 29.2264 3.08897 29.1942 3.11753 29.1261C3.1461 29.0581 3.20686 28.9077 3.25685 28.7967L3.34247 28.6068C3.39723 28.4922 3.45086 28.3812 3.50324 28.2738L3.59251 28.0983C3.65322 27.9837 3.71742 27.8691 3.7817 27.7402C3.81027 27.69 3.83884 27.6363 3.87098 27.5862C3.93883 27.468 4.01395 27.3498 4.08894 27.2281C4.11751 27.1887 4.14241 27.1457 4.16741 27.1063C4.25311 26.9774 4.34596 26.8485 4.43524 26.7231L4.48877 26.6443C4.94562 26.0264 5.46249 25.4554 6.03158 24.9397V24.9397C6.66152 24.3725 7.35264 23.8776 8.09209 23.4642C7.35302 23.0558 6.66187 22.5657 6.03158 22.003V22.003C5.46249 21.4873 4.94562 20.9163 4.48877 20.2984L4.43524 20.2196C4.34596 20.0943 4.25311 19.9654 4.16741 19.8364C4.14241 19.797 4.11751 19.754 4.08894 19.7146C4.01395 19.5965 3.93883 19.4783 3.87098 19.3565C3.83884 19.3064 3.81027 19.2527 3.7817 19.2025C3.71742 19.0915 3.65322 18.9769 3.59251 18.8623L3.50324 18.6868L3.34247 18.3574L3.25685 18.164C3.20686 18.053 3.16039 17.9455 3.11753 17.8345C3.07468 17.7235 3.0604 17.6948 3.03541 17.6268C3.01041 17.5588 2.95333 17.4083 2.91405 17.2973C2.87476 17.1863 2.86398 17.1541 2.84256 17.0789C2.82113 17.0037 2.77112 16.8604 2.73898 16.7494L2.67481 16.5238C2.64624 16.4128 2.62108 16.3017 2.59251 16.1871L2.53898 15.9544C2.51398 15.8433 2.49624 15.7287 2.47481 15.5962L2.43192 15.3599C2.41406 15.2417 2.39973 15.1235 2.38187 15.0018C2.36402 14.88 2.36399 14.8514 2.35328 14.7762C2.35328 14.6437 2.33191 14.5112 2.32119 14.3786C2.32119 14.3142 2.32119 14.2461 2.32119 14.1817C2.32119 13.9847 2.32119 13.7877 2.32119 13.5908C2.32403 10.5947 3.51188 7.72209 5.62408 5.6032C7.73628 3.48432 10.6003 2.29222 13.5878 2.28843H16.4447V-0.0393677L13.5878 2.0553e-05Z" fill="white"/>
</svg>
